<svg width="420" height="420" viewBox="0 0 420 420" fill="none" xmlns="http://www.w3.org/2000/svg">
  <defs>
    <linearGradient id="gold" x1="70" y1="50" x2="350" y2="370" gradientUnits="userSpaceOnUse">
      <stop offset="0" stop-color="#FFF1BE"/>
      <stop offset="0.35" stop-color="#D6AD52"/>
      <stop offset="0.62" stop-color="#8E6421"/>
      <stop offset="1" stop-color="#F5D486"/>
    </linearGradient>
    <linearGradient id="soft" x1="130" y1="130" x2="300" y2="310" gradientUnits="userSpaceOnUse">
      <stop offset="0" stop-color="#FFF6D6"/>
      <stop offset="0.5" stop-color="#D6AD52"/>
      <stop offset="1" stop-color="#7C5518"/>
    </linearGradient>
    <filter id="glow" x="-20%" y="-20%" width="140%" height="140%">
      <feGaussianBlur stdDeviation="4" result="blur"/>
      <feColorMatrix in="blur" type="matrix" values="1 0 0 0 0.84 0 1 0 0 0.62 0 0 1 0 0.22 0 0 0 0.42 0"/>
      <feMerge><feMergeNode/><feMergeNode in="SourceGraphic"/></feMerge>
    </filter>
  </defs>
  <rect width="420" height="420" rx="84" fill="#050301"/>
  <circle cx="210" cy="190" r="128" stroke="url(#gold)" stroke-width="5" opacity="0.95"/>
  <path d="M210 38L223 72L257 85L223 98L210 132L197 98L163 85L197 72L210 38Z" fill="url(#gold)" filter="url(#glow)"/>
  <path d="M210 256L220 282L246 292L220 302L210 328L200 302L174 292L200 282L210 256Z" fill="url(#gold)" opacity="0.9"/>
  <path d="M142 260H184V128H146V98H255V128H216V260H260V292H142V260Z" fill="url(#soft)"/>
  <path d="M140 120L172 98L294 292H252L140 120Z" fill="url(#gold)" opacity="0.98"/>
  <path d="M278 102H322L188 292H144L278 102Z" fill="url(#gold)" opacity="0.92"/>
  <text x="210" y="374" text-anchor="middle" font-family="Georgia, 'Times New Roman', serif" font-size="42" letter-spacing="10" fill="url(#gold)">LUXORA</text>
  <text x="210" y="400" text-anchor="middle" font-family="Arial, sans-serif" font-size="12" letter-spacing="8" fill="#C7AA65">PRIVATE ACCESS</text>
</svg>
